<svg width="239" height="72" viewBox="0 0 239 72" fill="none" xmlns="http://www.w3.org/2000/svg">
<path fill-rule="evenodd" clip-rule="evenodd" d="M38.3096 17.5576C43.2653 14.4679 48.5544 13.8765 53.4961 17.4629C58.8499 21.3492 60.2736 27.1436 59.5771 33.3418C58.9081 39.2995 56.3496 44.5035 51.8145 48.6523C51.1922 49.2213 50.7687 50.6333 51.0176 51.4111C51.7274 53.6393 52.3171 55.5531 49.4561 56.6748C46.4031 57.8727 45.8334 55.4889 44.8652 53.625C44.7667 53.4368 44.6114 53.2756 44.3994 52.9863C39.6617 52.9863 28.7588 53.0222 28.6904 53.0225C28.679 53.0415 28.1032 54.002 27.6406 54.7783C26.587 56.5443 25.5375 57.6598 23.3301 56.5674C21.3548 55.5914 20.6076 54.2322 21.7422 52.2305C22.6891 50.5565 22.2117 49.5338 20.8418 48.2266C14.5781 42.2486 12.1003 34.6794 13.8428 26.3662C15.81 16.9818 24.6233 12.036 34.1074 17.1514C35.4885 17.8969 36.5308 18.667 38.3096 17.5576ZM31.0986 46.3516H41.9111C40.0463 41.8367 38.4064 37.8637 36.4746 33.1875C34.5195 37.9753 32.9288 41.8724 31.0986 46.3516ZM52.3945 27.1104C50.9687 21.7617 45.0736 20.0837 41.0078 23.832C40.563 24.2424 40.1797 25.249 40.374 25.7354C42.6538 31.4269 45.0493 37.0716 47.6309 43.248C52.2934 38.3355 54.0083 33.1613 52.3945 27.1104ZM31.9502 23.8623C29.4635 20.8844 24.241 21.2746 22.041 24.5C18.3325 29.9365 19.8117 37.7553 25.2373 43.0088C25.4448 42.9519 30.2131 31.7103 32.4111 26.2207C32.6672 25.5803 32.4107 24.4146 31.9502 23.8623Z" fill="black"/>
<path fill-rule="evenodd" clip-rule="evenodd" d="M54.5195 0C64.4607 0 72.5195 8.05887 72.5195 18V54C72.5195 63.9411 64.4607 72 54.5195 72H18.5195C8.57841 72 0.519531 63.9411 0.519531 54V18C0.519531 8.05887 8.57841 0 18.5195 0H54.5195ZM18.5195 6C11.8921 6 6.51953 11.3726 6.51953 18V54C6.51953 60.6274 11.8921 66 18.5195 66H54.5195C61.1469 66 66.5195 60.6274 66.5195 54V18C66.5195 11.3726 61.1469 6 54.5195 6H18.5195Z" fill="black"/>
<path d="M195.596 25.0566C202.576 25.0566 207.528 28.5963 208.92 34.2041C209.298 35.795 208.343 36.75 206.712 36.75H203.371C201.959 36.7499 201.303 36.0536 200.687 34.7412C199.812 32.8323 198.102 31.6593 195.735 31.6592C191.798 31.6592 189.212 34.9605 189.212 40.7275C189.212 46.5739 191.778 49.8945 195.735 49.8945C197.962 49.8944 199.752 48.8009 200.687 46.8125C201.303 45.5001 201.959 44.8038 203.371 44.8037H206.692C208.323 44.8037 209.278 45.639 208.979 47.0508C207.707 52.8178 202.874 56.5966 195.636 56.5967C186.23 56.5967 180.602 50.1335 180.602 40.8467C180.602 31.4803 186.329 25.0567 195.596 25.0566Z" fill="black"/>
<path d="M103.253 14.7168C111.227 14.7169 116.815 18.5952 118.107 24.4814C118.465 26.072 117.491 26.9862 115.881 26.9863H112.241C110.829 26.9863 110.233 26.2906 109.597 24.998C108.646 23.1523 106.628 22.0582 103.774 21.9287L103.193 21.916C98.9775 21.916 96.6504 23.8447 96.6504 26.4697C96.5908 29.393 99.554 30.7052 103.094 31.5205L106.753 32.3955C113.832 33.9864 118.943 37.5861 118.963 44.3672C118.943 51.8245 113.096 56.5771 103.153 56.5771C94.2443 56.5771 88.2581 52.8788 86.9854 45.7197C86.7069 44.1288 87.662 43.2139 89.2529 43.2139H92.9316C94.3634 43.2139 95.0002 43.9297 95.5371 45.3018C96.611 47.9864 99.4145 49.3584 103.054 49.3584C107.429 49.3584 110.252 47.3305 110.272 44.3477C110.253 41.6033 107.786 40.3307 103.352 39.2568L98.917 38.1426C92.0366 36.492 87.8004 33.0515 87.8203 27.0459C87.7808 19.6484 94.3241 14.7168 103.253 14.7168Z" fill="black"/>
<path fill-rule="evenodd" clip-rule="evenodd" d="M165.659 25.0566C172.46 25.0567 178.625 28.1191 178.625 35.3975V53.6133C178.625 55.1644 177.789 56 176.238 56H172.978C171.426 56 170.591 55.2442 170.591 53.8721V51.7637H170.353C168.861 54.6074 165.937 56.5762 161.423 56.5762C155.596 56.576 151.281 53.5139 151.281 47.4688C151.281 40.6477 156.71 38.6193 162.756 38.0625C168.065 37.5455 170.153 37.2868 170.153 35.3184V35.1982C170.153 32.6928 168.502 31.2412 165.619 31.2412C163.531 31.2413 162.04 31.9376 161.105 33.0312C160.231 34.105 159.554 34.7217 158.202 34.6025L155.079 34.3438C153.389 34.2044 152.495 33.0907 153.23 31.5596C155.179 27.5028 159.534 25.0566 165.659 25.0566ZM170.213 41.8408C169.199 42.5168 166.177 42.9544 164.327 43.2129C161.344 43.6305 159.375 44.8041 159.375 47.1904C159.375 49.517 161.245 50.7295 163.85 50.7295C167.568 50.7294 170.213 48.2837 170.213 45.082V41.8408Z" fill="black"/>
<path d="M217.429 15.2734C218.98 15.2734 219.815 16.109 219.815 17.6602V37.0488H220.272L228.903 26.8076C229.699 25.8531 230.574 25.4551 231.827 25.4551H235.923C237.991 25.4551 238.608 26.8079 237.275 28.3789L228.446 38.6797L238.369 53.0977C239.483 54.7084 238.807 56.001 236.838 56.001H232.284C231.011 56.001 230.116 55.5435 229.4 54.4697L222.103 43.6914L219.815 46.2959V53.6143C219.815 55.1654 218.98 56.001 217.429 56.001H213.73C212.179 56.001 211.344 55.1654 211.344 53.6143V17.6602C211.344 16.109 212.179 15.2734 213.73 15.2734H217.429Z" fill="black"/>
<path d="M138.854 25.0566C145.217 25.0566 149.393 29.4316 149.394 36.5508V53.6133C149.394 55.1644 148.558 56 147.007 56H143.309C141.757 56 140.922 55.1644 140.922 53.6133V38.0625C140.942 34.324 138.894 32.0968 135.493 32.0967C132.073 32.0967 129.726 34.4033 129.706 38.3408V53.6133C129.706 55.1644 128.87 56 127.319 56H123.621C122.07 56 121.234 55.1644 121.234 53.6133V27.8408C121.234 26.2897 122.07 25.4541 123.621 25.4541H126.922C128.473 25.4541 129.309 26.2897 129.309 27.8408V30.8438H129.666C131.038 27.2841 134.32 25.0567 138.854 25.0566Z" fill="black"/>
</svg>
