<svg xmlns="http://www.w3.org/2000/svg" viewBox="0 0 72 72" fill="none">
  <!-- Rounded rectangle background -->
  <rect width="72" height="72" rx="16" fill="white"/>
  <!-- Rounded rectangle border -->
  <path fill-rule="evenodd" clip-rule="evenodd" d="M54 0C63.9411 0 72 8.05887 72 18V54C72 63.9411 63.9411 72 54 72H18C8.05887 72 0 63.9411 0 54V18C0 8.05887 8.05887 0 18 0H54ZM18 5C11.3726 5 6 10.3726 6 17V55C6 61.6274 11.3726 67 18 67H54C60.6274 67 66 61.6274 66 55V17C66 10.3726 60.6274 5 54 5H18Z" fill="#171717"/>
  <!-- Pretzel icon -->
  <path fill-rule="evenodd" clip-rule="evenodd" d="M37.79 17.5576C42.7457 14.4679 48.0348 13.8765 52.9765 17.4629C58.3303 21.3492 59.754 27.1436 59.0575 33.3418C58.3885 39.2995 55.83 44.5035 51.2949 48.6523C50.6726 49.2213 50.2491 50.6333 50.498 51.4111C51.2078 53.6393 51.7975 55.5531 48.9365 56.6748C45.8835 57.8727 45.3138 55.4889 44.3456 53.625C44.2471 53.4368 44.0918 53.2756 43.8798 52.9863C39.1421 52.9863 28.2392 53.0222 28.1708 53.0225C28.1594 53.0415 27.5836 54.002 27.121 54.7783C26.0674 56.5443 25.0179 57.6598 22.8105 56.5674C20.8352 55.5914 20.088 54.2322 21.2226 52.2305C22.1695 50.5565 21.6921 49.5338 20.3222 48.2266C14.0585 42.2486 11.5807 34.6794 13.3232 26.3662C15.2904 16.9818 24.1037 12.036 33.5878 17.1514C34.9689 17.8969 36.0112 18.667 37.79 17.5576ZM30.579 46.3516H41.3915C39.5267 41.8367 37.8868 37.8637 35.955 33.1875C33.9999 37.9753 32.4092 41.8724 30.579 46.3516ZM51.8749 27.1104C50.4491 21.7617 44.554 20.0837 40.4882 23.832C40.0434 24.2424 39.6601 25.249 39.8544 25.7354C42.1342 31.4269 44.5297 37.0716 47.1113 43.248C51.7738 38.3355 53.4887 33.1613 51.8749 27.1104ZM31.4306 23.8623C28.9439 20.8844 23.7214 21.2746 21.5214 24.5C17.8129 29.9365 19.2921 37.7553 24.7177 43.0088C24.9252 42.9519 29.6935 31.7103 31.8915 26.2207C32.1476 25.5803 31.8911 24.4146 31.4306 23.8623Z" fill="#171717"/>
</svg>
